<svg width="20" height="15" viewBox="0 0 20 15" fill="none" xmlns="http://www.w3.org/2000/svg">
<path d="M19.5822 2.19889C19.4692 1.77334 19.2464 1.38494 18.936 1.0726C18.6257 0.760266 18.2387 0.534946 17.8139 0.419208C16.2544 4.22788e-08 10 0 10 0C10 0 3.74592 -4.22788e-08 2.18613 0.420627C1.76147 0.536241 1.37463 0.761348 1.06429 1.07342C0.753961 1.3855 0.531024 1.7736 0.41779 2.19889C0 3.77004 0 7.04568 0 7.04568C0 7.04568 0 10.321 0.41779 11.891C0.531666 12.3131 0.755272 12.6975 1.06587 13.0051C1.37647 13.3127 1.76299 13.5326 2.18613 13.6424C3.74663 14.063 10 14.063 10 14.063C10 14.063 16.2541 14.063 17.8139 13.6424C18.237 13.5326 18.6235 13.3127 18.9341 13.0051C19.2447 12.6975 19.4683 12.3131 19.5822 11.891C20 10.3213 20 7.04568 20 7.04568C20 7.04568 20 3.77039 19.5822 2.20031V2.19889ZM7.95467 10.0195V4.07185L13.182 7.04568L7.95467 10.0195Z" fill="#9B9B9B"/>
</svg>
