<svg width="20" height="20" viewBox="0 0 20 20" fill="none" xmlns="http://www.w3.org/2000/svg">
<path d="M10.0009 4.87185C8.98713 4.87185 7.99615 5.17246 7.15326 5.73566C6.31036 6.29887 5.65341 7.09937 5.26547 8.03594C4.87753 8.97252 4.77602 10.0031 4.97379 10.9974C5.17156 11.9916 5.65973 12.9049 6.37655 13.6217C7.09337 14.3385 8.00666 14.8267 9.00092 15.0245C9.99518 15.2223 11.0258 15.1207 11.9623 14.7328C12.8989 14.3449 13.6994 13.6879 14.2626 12.845C14.8258 12.0021 15.1264 11.0111 15.1264 9.99741C15.1274 9.32402 14.9956 8.65705 14.7383 8.03473C14.4811 7.41241 14.1036 6.84696 13.6275 6.37081C13.1513 5.89465 12.5859 5.51715 11.9635 5.25992C11.3412 5.0027 10.6743 4.87083 10.0009 4.87185ZM10.0009 13.3301C9.34181 13.3301 8.69757 13.1346 8.14958 12.7685C7.6016 12.4023 7.1745 11.8819 6.9223 11.273C6.67009 10.6641 6.6041 9.99414 6.73267 9.34776C6.86125 8.70137 7.17861 8.10763 7.64463 7.64161C8.11065 7.17559 8.70439 6.85822 9.35078 6.72965C9.99717 6.60108 10.6672 6.66706 11.276 6.91927C11.8849 7.17148 12.4054 7.59858 12.7715 8.14656C13.1377 8.69454 13.3331 9.33879 13.3331 9.99784C13.3315 10.8811 12.9799 11.7277 12.3553 12.3523C11.7308 12.9769 10.8841 13.3285 10.0009 13.3301ZM16.5318 4.66232C16.5318 4.89875 16.4617 5.12987 16.3303 5.32646C16.199 5.52304 16.0123 5.67626 15.7939 5.76674C15.5754 5.85722 15.3351 5.88089 15.1032 5.83476C14.8713 5.78864 14.6583 5.67479 14.4911 5.50761C14.3239 5.34042 14.2101 5.12742 14.1639 4.89553C14.1178 4.66364 14.1415 4.42329 14.232 4.20485C14.3224 3.98642 14.4757 3.79972 14.6722 3.66837C14.8688 3.53701 15.1 3.4669 15.3364 3.4669C15.4935 3.46656 15.6491 3.49725 15.7943 3.5572C15.9394 3.61716 16.0714 3.7052 16.1824 3.81627C16.2935 3.92734 16.3815 4.05926 16.4415 4.20445C16.5015 4.34964 16.5321 4.50524 16.5318 4.66232ZM19.9267 5.87588C19.8506 4.27436 19.4851 2.85558 18.3118 1.68523C17.1384 0.514867 15.7243 0.150669 14.1211 0.0703122C12.4703 -0.0234374 7.52319 -0.0234374 5.87286 0.0703122C4.27436 0.146349 2.85731 0.511843 1.6822 1.68091C0.507091 2.84997 0.150669 4.26961 0.0703122 5.87113C-0.0234374 7.5219 -0.0234374 12.469 0.0703122 14.1194C0.146349 15.7209 0.511843 17.1397 1.68523 18.31C2.85861 19.4804 4.27263 19.8446 5.87588 19.9249C7.52665 20.0187 12.4738 20.0187 14.1241 19.9249C15.7256 19.8489 17.1444 19.4834 18.3148 18.31C19.4851 17.1366 19.8493 15.7226 19.9297 14.1194C20.0234 12.4686 20.0234 7.52579 19.9297 5.87545L19.9267 5.87588ZM17.7942 15.8907C17.6245 16.3209 17.3683 16.7116 17.0412 17.0387C16.7142 17.3657 16.3235 17.6219 15.8933 17.7916C14.5773 18.3135 11.4546 18.1929 10.0004 18.1929C8.54623 18.1929 5.42096 18.3087 4.1076 17.7916C3.67738 17.6219 3.28663 17.3657 2.95962 17.0387C2.63261 16.7116 2.37633 16.3209 2.20668 15.8907C1.68739 14.5747 1.80576 11.4516 1.80576 9.99741C1.80576 8.54321 1.68998 5.41793 2.20711 4.10457C2.37676 3.67435 2.63304 3.2836 2.96005 2.9566C3.28706 2.62959 3.67781 2.3733 4.10803 2.20366C5.42398 1.68177 8.54667 1.8023 10.0009 1.8023C11.4551 1.8023 14.5803 1.68652 15.8937 2.20366C16.3239 2.3733 16.7147 2.62959 17.0417 2.9566C17.3687 3.2836 17.625 3.67435 17.7946 4.10457C18.3165 5.42052 18.196 8.54321 18.196 9.99741C18.196 11.4516 18.3161 14.579 17.7942 15.8907Z" fill="#9B9B9B"/>
</svg>
