<svg width="20" height="20" viewBox="0 0 20 20" fill="none" xmlns="http://www.w3.org/2000/svg">
<path d="M20 9.99747C19.9995 8.08652 19.4515 6.21573 18.4208 4.60655C17.3902 2.99737 15.92 1.71719 14.1844 0.917573C12.4488 0.117952 10.5204 -0.167632 8.62758 0.0946309C6.73471 0.356894 4.95662 1.15602 3.50381 2.39741C2.05099 3.6388 0.984284 5.27046 0.429964 7.09924C-0.124356 8.92803 -0.143076 10.8773 0.37602 12.7164C0.895116 14.5555 1.93029 16.2074 3.359 17.4764C4.78771 18.7455 6.55012 19.5786 8.4376 19.8772V12.8872H5.89698V9.99747H8.43721V7.79386C8.43721 5.28801 9.92932 3.90367 12.2142 3.90367C12.9642 3.91411 13.7124 3.97937 14.4529 4.09892V6.55909H13.1916C11.9498 6.55909 11.562 7.32995 11.562 8.12111V9.99825H14.3346L13.891 12.888H11.5624V19.878C13.9148 19.5051 16.057 18.3052 17.6037 16.494C19.1504 14.6828 20.0001 12.3792 20 9.99747Z" fill="#9B9B9B"/>
</svg>
