<svg width="155" height="61" viewBox="0 0 155 61" fill="none" xmlns="http://www.w3.org/2000/svg">
<g clip-path="url(#clip0_1_102)">
<path d="M55.1718 13.1625C79.2926 28.2734 102.985 38.3266 129.345 30.0629L129.946 29.4204C104.768 35.4385 86.0777 27.5479 61.1139 12.0846C76.2525 6.37741 89.491 3.39944 103.503 0.00690943H96.2C83.839 3.39944 71.2501 7.19963 58.8891 10.7787L57.9218 10.2121C61.9569 6.10103 64.9694 1.38189 67.6019 1.38189H73.4196L74.7048 0H55.7937L54.5154 1.37498H58.6127C59.3451 1.37498 60.0291 1.76191 59.5938 2.26629C52.7673 10.2467 48.2071 15.1317 38.2713 24.7565H44.3516C44.3516 24.7565 51.3993 16.7761 55.1649 13.1556" fill="#BFA77B"/>
<path d="M11.677 50.1902C19.4155 47.2744 26.1522 45.7475 33.3173 44.0132H29.6277C23.3055 45.7475 16.859 47.6959 10.5369 49.5269L10.0463 49.2367C12.1122 47.1362 13.6531 44.7249 14.9935 44.7249H17.9645L18.6209 44.0201H8.95464L8.29824 44.7249H10.3918C10.7649 44.7249 11.1173 44.9252 10.8962 45.1809C7.40693 49.2574 5.07154 51.7587 -0.00689697 56.6782H3.10235C3.10235 56.6782 6.70907 52.6016 8.6299 50.7499C20.9632 58.4746 33.0755 63.6152 46.5558 59.3936L46.8667 59.0619C33.9944 62.1366 24.4387 58.1015 11.677 50.1971" fill="#BFA77B"/>
<path d="M70.3999 53.4235C69.018 53.3406 72.2447 46.7836 79.6102 47.7647C75.2227 52.6911 71.7887 53.5064 70.3999 53.4235ZM76.9639 53.161C77.5166 51.9311 79.6724 50.031 82.5881 46.7698H80.5291L80.1077 47.2189C74.2623 46.4588 69.702 49.043 67.947 51.5787C67.6638 51.7445 67.4012 51.8965 67.3321 51.9311C64.3058 53.6032 60.3536 55.448 62.0326 53.3475L66.0608 49.0291C70.2133 44.4344 60.0288 48.0964 58.412 49.0499L58.4949 48.96C62.7581 44.2409 52.7947 48.4833 51.5924 49.0913C52.311 48.3313 53.0434 47.5298 53.762 46.7698L51.7237 46.749L44.0059 55.0196H46.0649C49.8374 50.3212 57.0025 46.8043 56.8229 48.5662C56.7054 49.7477 51.1917 55.0196 51.1917 55.0196H53.299L56.0559 51.9864C60.5816 47.2603 65.3975 47.4745 64.1054 48.9324L60.7198 52.5391C58.032 55.4342 60.6852 56.284 67.5878 52.1798C67.2077 52.9191 67.0626 53.6308 67.2354 54.2319C67.6154 55.5585 70.5934 55.3374 75.5267 52.5115C74.4626 55.524 76.3351 56.3117 83.5347 51.8896L84.3224 51.0467C84.1704 51.1296 82.9958 51.8205 82.8438 51.9035C79.7138 53.6377 76.0242 55.2545 76.9639 53.1541" fill="#BFA77B"/>
<path d="M34.305 47.7577C29.9175 52.6842 26.4835 53.4995 25.0948 53.4166C23.7129 53.3336 26.9396 46.7766 34.305 47.7577ZM21.9302 54.2319C22.3103 55.5585 25.2882 55.3374 30.2216 52.5114C29.351 54.985 30.4565 55.9523 34.8647 53.7758L33.7108 55.0126H35.7698C39.0103 51.4819 43.612 46.7628 47.6886 48.8563L49.3469 47.0806C47.2326 46.4864 46.514 46.4726 41.2352 49.1465C41.9399 48.3934 42.7622 47.509 43.4669 46.7559H41.4079L35.7215 52.8569C33.1719 54.1144 30.9056 54.8468 31.6656 53.154C32.2184 51.9241 34.3741 50.024 37.2899 46.7628H35.2309L34.8094 47.2119C26.7737 46.1686 21.1287 51.4405 21.9302 54.2319Z" fill="#BFA77B"/>
<path d="M117.377 47.0878C115.263 46.4936 114.545 46.4798 109.266 49.1606C109.977 48.4075 110.793 47.5231 111.498 46.7699H109.439L101.741 55.0198H103.8C107.041 51.4891 111.643 46.7699 115.719 48.8635L117.377 47.0878Z" fill="#BFA77B"/>
<path d="M103.898 50.5076L104.298 50.0723H98.1075L97.6998 50.5214H99.2544C99.5377 50.5353 99.5861 50.7011 99.3995 50.8945C98.7224 51.62 96.8292 53.6583 96.8292 53.6583C96.4008 54.1143 96.1728 54.4874 93.8167 54.4944C91.0737 54.4944 89.7816 53.2645 91.3777 50.5629C92.8148 48.1308 96.7187 44.5448 102.136 44.5448C106.302 44.5448 104.561 46.6245 104.45 46.7765H105.314L107.166 44.7935C106.074 44.296 104.381 44.0127 102.474 44.0197C99.0057 44.0197 95.9932 44.8557 93.6025 46.2169C91.3501 47.502 89.7332 49.1188 88.9456 50.4662C88.0473 51.9931 88.0612 53.2299 88.8419 53.9071C89.7194 54.6878 91.3501 55.0333 93.4643 55.0333C95.1226 55.0333 96.6772 54.7707 98.1558 54.4529L101.196 51.1986C101.687 50.6665 102.122 50.5214 102.654 50.5214H103.891L103.898 50.5076Z" fill="#BFA77B"/>
<path d="M141.803 54.025C146.19 49.0986 149.624 48.2833 151.013 48.3662C152.395 48.4491 149.168 55.0062 141.803 54.025ZM117.627 53.3617C116.065 52.2908 120.549 46.549 125.566 47.4749C125.531 48.1036 126.374 49.0019 126.844 49.2852C124.84 51.8762 119.154 54.412 117.627 53.3617ZM154.177 47.5509C153.818 46.2934 151.11 46.4316 146.619 48.8637L148.574 46.7701H146.508L141.844 51.7726C141.706 51.8486 141.602 51.9107 141.568 51.9315C138.541 53.6105 134.589 55.4484 136.268 53.3479L142.411 46.7632H140.352L137.788 49.5132L137.208 50.135C132.786 54.4949 128.246 54.2669 129.511 52.8435L131.28 50.9572L135.204 46.7563H133.145L130.285 49.8172C129.158 49.6859 127.694 49.071 127.39 48.6771C126.484 47.4887 127.424 46.6319 128.253 45.6577C126.934 45.3813 126.422 44.8977 125.676 46.7563C117.64 46.4177 111.919 54.336 115.747 54.9233C119.575 55.5106 124.723 52.6086 127.362 49.6306C128.454 50.1005 129.435 50.1212 129.994 50.1212L129.276 50.8882L127.542 52.7468C123.824 56.8579 131.591 54.3567 134.423 53.1061L134.493 53.0715C132.689 55.4276 135.107 56.008 141.043 52.6293L134.969 59.138H137.028L141.298 54.564C149.334 55.6073 154.993 50.3768 154.177 47.544" fill="#BFA77B"/>
</g>
<defs>
<clipPath id="clip0_1_102">
<rect width="154.26" height="60.9067" fill="white"/>
</clipPath>
</defs>
</svg>
