<svg width="123" height="44" viewBox="0 0 123 44" fill="none" xmlns="http://www.w3.org/2000/svg">
<path fill-rule="evenodd" clip-rule="evenodd" d="M22.6718 17.5339C55.0272 37.6571 86.822 51.05 122.193 40.0438L123 39.1836C89.2175 47.2042 64.1503 36.6872 30.6481 16.0918C50.9584 8.49287 68.7203 4.52053 87.5186 0H77.7244C61.1432 4.52053 44.2562 9.5724 27.6665 14.3544L26.3668 13.6038C31.7778 8.13021 35.8297 1.84701 39.3464 1.84701H47.1528L48.8772 0.00843383H23.5042L21.7883 1.83858H27.2843C28.2611 1.83858 29.1785 2.35304 28.6009 3.02775C19.4523 13.6459 13.3363 20.1569 0 32.9763H8.16319C8.16319 32.9763 17.626 22.3497 22.6718 17.5255V17.5339Z" fill="white"/>
</svg>
