<svg width="15" height="21" viewBox="0 0 15 21" fill="none" xmlns="http://www.w3.org/2000/svg">
<path d="M14.8202 2.33981C14.7122 2.26181 14.6043 2.26181 14.4964 2.30081C13.5971 2.72977 12.6619 2.4178 12.1223 1.63786C11.8705 1.28689 11.7266 0.818932 11.7266 0.389968C11.7266 0.272977 11.6907 0.194984 11.6187 0.11699C11.5468 0.0389967 11.4748 0 11.3669 0H7.69785C7.48202 0 7.33814 0.155987 7.33814 0.389968V14.2338C7.33814 14.2728 7.33814 14.2728 7.33814 14.3118C7.2662 15.0138 6.7626 15.5207 6.11512 15.5207C5.43166 15.5207 4.85612 14.8968 4.85612 14.1558C4.85612 13.4539 5.32375 12.9079 5.97123 12.8299C6.15109 12.7909 6.29497 12.635 6.29497 12.44V7.91635C6.29497 7.68237 6.15109 7.52638 5.93526 7.52638C5.93526 7.52638 5.89929 7.52638 5.86332 7.52638C2.55397 7.68237 8.9467e-06 10.5681 8.9467e-06 14.1558C8.9467e-06 17.8215 2.73382 20.7853 6.11512 20.7853C9.28058 20.7853 11.9425 18.1335 12.1943 14.7408C12.2302 14.7018 12.2302 14.6238 12.2302 14.5848V7.05842C13.0216 7.2534 13.8489 7.33139 14.7122 7.17541C14.8921 7.13641 15 6.98042 15 6.78544V2.65178C15 2.53479 14.9281 2.4178 14.8202 2.33981Z" fill="#9B9B9B"/>
</svg>
