<svg width="27" height="33" viewBox="0 0 27 33" fill="none" xmlns="http://www.w3.org/2000/svg">
<path d="M13.3 0.5C9.92726 0.499831 6.69079 1.83081 4.29398 4.20365C1.89716 6.5765 0.533727 9.79943 0.5 13.172C0.5 21.9399 11.78 31.6999 12.26 32.1159C12.5498 32.3638 12.9186 32.5 13.3 32.5C13.6813 32.5 14.0501 32.3638 14.34 32.1159C14.9 31.6999 26.0999 21.9399 26.0999 13.172C26.0662 9.79943 24.7028 6.5765 22.3059 4.20365C19.9091 1.83081 16.6727 0.499831 13.3 0.5ZM13.3 18.0999C12.1924 18.0999 11.1097 17.7715 10.1888 17.1562C9.26786 16.5408 8.5501 15.6662 8.12625 14.643C7.7024 13.6197 7.5915 12.4937 7.80758 11.4075C8.02365 10.3212 8.557 9.32335 9.34017 8.54018C10.1233 7.757 11.1212 7.22366 12.2075 7.00758C13.2937 6.7915 14.4197 6.9024 15.443 7.32625C16.4662 7.7501 17.3408 8.46787 17.9562 9.38878C18.5715 10.3097 18.8999 11.3924 18.8999 12.5C18.8999 13.9852 18.3099 15.4095 17.2597 16.4597C16.2095 17.5099 14.7852 18.0999 13.3 18.0999Z" stroke="#B8B8B8"/>
</svg>
